<svg xmlns="http://www.w3.org/2000/svg" width="27" height="27" viewBox="0 0 27 27"><g transform="translate(0 0)"><circle cx="13.5" cy="13.5" r="13.5" transform="translate(0 0)" fill="#fce6e8"/><path d="M7.1,5.7a3.642,3.642,0,1,0,3.642,3.642A3.637,3.637,0,0,0,7.1,5.7Zm0,6.01A2.368,2.368,0,1,1,9.469,9.341,2.372,2.372,0,0,1,7.1,11.709ZM11.742,5.55a.85.85,0,1,1-.85-.85A.848.848,0,0,1,11.742,5.55Zm2.412.862a4.2,4.2,0,0,0-1.148-2.977A4.232,4.232,0,0,0,10.03,2.288c-1.173-.067-4.688-.067-5.861,0A4.226,4.226,0,0,0,1.192,3.432,4.218,4.218,0,0,0,.045,6.409c-.067,1.173-.067,4.688,0,5.861a4.2,4.2,0,0,0,1.148,2.977,4.237,4.237,0,0,0,2.977,1.148c1.173.067,4.688.067,5.861,0a4.2,4.2,0,0,0,2.977-1.148,4.232,4.232,0,0,0,1.148-2.977c.067-1.173.067-4.685,0-5.858Zm-1.515,7.117a2.4,2.4,0,0,1-1.35,1.35,15.657,15.657,0,0,1-4.188.285,15.779,15.779,0,0,1-4.188-.285,2.4,2.4,0,0,1-1.35-1.35,15.657,15.657,0,0,1-.285-4.188,15.779,15.779,0,0,1,.285-4.188A2.4,2.4,0,0,1,2.914,3.8,15.657,15.657,0,0,1,7.1,3.518a15.779,15.779,0,0,1,4.188.285,2.4,2.4,0,0,1,1.35,1.35,15.657,15.657,0,0,1,.285,4.188A15.647,15.647,0,0,1,12.639,13.528Z" transform="translate(6.559 4.098)" fill="#03365e"/></g></svg>